<?xml version="1.0" encoding="UTF-8"?><svg id="Camada_2" xmlns="http://www.w3.org/2000/svg" xmlns:xlink="http://www.w3.org/1999/xlink" viewBox="0 0 316.21 374.5"><defs><style>.cls-1{stroke:url(#Gradiente_sem_nome_43-2);}.cls-1,.cls-2{fill:none;stroke-miterlimit:10;stroke-width:35px;}.cls-3{fill:url(#Gradiente_sem_nome_43-4);}.cls-4{fill:url(#Gradiente_sem_nome_43-5);}.cls-5{fill:url(#Gradiente_sem_nome_43-6);}.cls-2{stroke:url(#Gradiente_sem_nome_43);}.cls-6{fill:url(#Gradiente_sem_nome_43-3);}</style><linearGradient id="Gradiente_sem_nome_43" x1="137.53" y1="141.49" x2="316.21" y2="141.49" gradientUnits="userSpaceOnUse"><stop offset="0" stop-color="#034159"/><stop offset=".99" stop-color="#038c3e"/></linearGradient><linearGradient id="Gradiente_sem_nome_43-2" x1="137.53" y1="285.16" x2="316.21" y2="285.16" xlink:href="#Gradiente_sem_nome_43"/><linearGradient id="Gradiente_sem_nome_43-3" x1="0" y1="14.66" x2="310.97" y2="14.66" xlink:href="#Gradiente_sem_nome_43"/><linearGradient id="Gradiente_sem_nome_43-4" x1="137.53" y1="191.5" x2="172.76" y2="191.5" xlink:href="#Gradiente_sem_nome_43"/><linearGradient id="Gradiente_sem_nome_43-5" x1="137.53" y1="191.5" x2="172.76" y2="191.5" xlink:href="#Gradiente_sem_nome_43"/><linearGradient id="Gradiente_sem_nome_43-6" x1="134.14" y1="51.13" x2="176.83" y2="51.13" xlink:href="#Gradiente_sem_nome_43"/></defs><g id="Camada_1-2"><g><path class="cls-2" d="M298.71,141.49c0-39.67-32.16-71.84-71.84-71.84s-71.84,32.43-71.84,71.84,32.43,71.84,71.84,71.84"/><path class="cls-1" d="M155.03,285.16c0,39.67,32.16,71.84,71.84,71.84s71.84-32.16,71.84-71.84-32.16-71.84-71.84-71.84"/></g><g><rect class="cls-6" x="0" y="0" width="310.97" height="29.31" rx="14.66" ry="14.66"/><g><rect class="cls-3" x="137.53" y="71" width="35.23" height="241" rx="16.94" ry="16.94"/><path class="cls-4" d="M155.83,72c8.79,0,15.94,7.15,15.94,15.94v207.13c0,8.79-7.15,15.94-15.94,15.94h-1.36c-8.79,0-15.94-7.15-15.94-15.94V87.93c0-8.79,7.15-15.94,15.94-15.94h1.36m0-1h-1.36c-9.35,0-16.94,7.58-16.94,16.94v207.13c0,9.35,7.58,16.94,16.94,16.94h1.36c9.35,0,16.94-7.58,16.94-16.94V87.93c0-9.35-7.58-16.94-16.94-16.94h0Z"/></g><ellipse class="cls-5" cx="155.49" cy="51.13" rx="21.34" ry="20.52"/></g></g></svg>